<svg width="477" height="52" viewBox="0 0 477 52" fill="none" xmlns="http://www.w3.org/2000/svg">
<path d="M438 16H460V36H438V16Z" fill="white"/>
<path d="M446.69 31.525C447.433 31.7 448.203 31.7834 449 31.7834C451.998 31.7834 454.683 30.5084 456.517 28.4917C457.8 27.0834 457.8 24.9084 456.517 23.5084C456.37 23.3417 456.205 23.1834 456.04 23.025" fill="white"/>
<path d="M446.69 31.525C447.433 31.7 448.203 31.7834 449 31.7834C451.998 31.7834 454.683 30.5084 456.517 28.4917C457.8 27.0834 457.8 24.9084 456.517 23.5084C456.37 23.3417 456.205 23.1834 456.04 23.025" stroke="black" stroke-width="1.5" stroke-linecap="round" stroke-linejoin="round"/>
<path d="M441.483 28.4917C442.216 29.2917 443.087 29.975 444.05 30.5083L453.959 21.4917C452.501 20.675 450.815 20.2167 449 20.2167C446.002 20.2167 443.316 21.4917 441.483 23.5083C440.2 24.9083 440.2 27.0917 441.483 28.4917Z" fill="white" stroke="black" stroke-width="1.5" stroke-linecap="round" stroke-linejoin="round"/>
<path d="M446.177 26C446.177 26.7084 446.497 27.35 447.002 27.8167L450.998 24.1834C450.494 23.7167 449.779 23.4333 449 23.4333C447.432 23.4333 446.177 24.575 446.177 26Z" fill="white" stroke="black" stroke-width="1.5" stroke-linecap="round" stroke-linejoin="round"/>
<path d="M457.479 18.2916L453.959 21.4916L450.998 24.1833L447.002 27.8166L444.041 30.5083L440.521 33.7083" fill="white"/>
<path d="M457.479 18.2916L453.959 21.4916L450.998 24.1833L447.002 27.8166L444.041 30.5083L440.521 33.7083" stroke="black" stroke-width="1.5" stroke-linecap="round" stroke-linejoin="round"/>
<rect x="0.5" y="0.5" width="476" height="51" rx="9.5" stroke="black" stroke-opacity="0.21"/>
</svg>
